<svg width="345" height="64" viewBox="0 0 345 64" fill="none" xmlns="http://www.w3.org/2000/svg">
<g clip-path="url(#clip0_49_132)">
<path d="M65.0526 39.9025C67.236 36.2593 69.61 25.9708 66.5213 19.2123C66.168 21.1533 63.9516 24.8077 60.6104 25.1244C66.9711 19.4404 66.7606 5.58831 54.6994 0C52.3703 5.6075 44.0178 7.38132 38.4435 7.38926C22.3311 7.41241 9.03011 5.81962 0.0224606 23.6463C2.15137 22.1687 2.9772 22.1687 5.9343 22.1687C-0.124185 23.862 -0.072689 30.9231 0.0219881 39.9029C0.0224606 35.8229 3.33049 32.515 7.41153 32.515C7.44555 32.515 7.48003 32.515 7.51414 32.5155H25.0442C25.0782 32.5159 25.1128 32.5163 25.1468 32.5163C27.5647 32.5163 29.7117 31.355 31.0597 29.5598H34.014C35.362 31.355 37.5085 32.5163 39.926 32.5163C39.9604 32.5163 39.9949 32.5159 40.0286 32.5155H57.5605C57.5945 32.515 57.6291 32.515 57.6631 32.515C61.7437 32.515 65.0517 35.8225 65.0526 39.9025Z" fill="white"/>
<path fill-rule="evenodd" clip-rule="evenodd" d="M65.0524 53.2073L65.0517 41.3798C54.708 38.426 43.3156 38.426 32.5369 38.426C21.7583 38.426 10.3659 38.426 0.0221458 41.3798L0.0214844 53.2073C0.0214844 57.2884 3.32999 60.5969 7.41103 60.5969C7.44523 60.5969 7.47982 60.5965 7.51364 60.5962H25.044C25.078 60.5958 25.1124 60.5954 25.1467 60.5954C27.5642 60.5954 29.7113 61.7566 31.0592 63.5517H34.0136C35.3619 61.757 37.5083 60.5954 39.9257 60.5954C39.96 60.5954 39.9945 60.5958 40.0284 60.5962H57.5602C57.5941 60.5965 57.6287 60.5969 57.6629 60.5969C61.7439 60.5969 65.0524 57.2884 65.0524 53.2073ZM56.1746 48.1326L42.8768 42.8576V46.1259L51.6173 49.4848L42.8768 52.8864V56.1614L56.1746 50.8061V48.1326ZM8.89024 48.1326L22.188 42.8576V46.1256L13.4474 49.4848L22.188 52.8861V56.1614L8.89024 50.8061V48.1326Z" fill="white"/>
</g>
<path d="M132.8 17.6958V45.7758H125.96V34.2158H115.32V45.7758H108.48V17.6958H115.32V28.6958H125.96V17.6958H132.8ZM158.777 34.2558C158.777 34.8958 158.737 35.5625 158.657 36.2558H143.177C143.284 37.6425 143.724 38.7092 144.497 39.4558C145.297 40.1758 146.271 40.5358 147.417 40.5358C149.124 40.5358 150.311 39.8158 150.977 38.3758H158.257C157.884 39.8425 157.204 41.1625 156.217 42.3358C155.257 43.5092 154.044 44.4292 152.577 45.0958C151.111 45.7625 149.471 46.0958 147.657 46.0958C145.471 46.0958 143.524 45.6292 141.817 44.6958C140.111 43.7625 138.777 42.4292 137.817 40.6958C136.857 38.9625 136.377 36.9358 136.377 34.6158C136.377 32.2958 136.844 30.2692 137.777 28.5358C138.737 26.8025 140.071 25.4692 141.777 24.5358C143.484 23.6025 145.444 23.1358 147.657 23.1358C149.817 23.1358 151.737 23.5892 153.417 24.4958C155.097 25.4025 156.404 26.6958 157.337 28.3758C158.297 30.0558 158.777 32.0158 158.777 34.2558ZM151.777 32.4558C151.777 31.2825 151.377 30.3492 150.577 29.6558C149.777 28.9625 148.777 28.6158 147.577 28.6158C146.431 28.6158 145.457 28.9492 144.657 29.6158C143.884 30.2825 143.404 31.2292 143.217 32.4558H151.777ZM169.226 27.1758C170.026 25.9492 171.026 24.9892 172.226 24.2958C173.426 23.5758 174.759 23.2158 176.226 23.2158V30.4558H174.346C172.639 30.4558 171.359 30.8292 170.506 31.5758C169.652 32.2958 169.226 33.5758 169.226 35.4158V45.7758H162.386V23.4558H169.226V27.1758ZM189.655 46.0958C187.468 46.0958 185.495 45.6292 183.735 44.6958C182.002 43.7625 180.628 42.4292 179.615 40.6958C178.628 38.9625 178.135 36.9358 178.135 34.6158C178.135 32.3225 178.642 30.3092 179.655 28.5758C180.668 26.8158 182.055 25.4692 183.815 24.5358C185.575 23.6025 187.548 23.1358 189.735 23.1358C191.922 23.1358 193.895 23.6025 195.655 24.5358C197.415 25.4692 198.802 26.8158 199.815 28.5758C200.828 30.3092 201.335 32.3225 201.335 34.6158C201.335 36.9092 200.815 38.9358 199.775 40.6958C198.762 42.4292 197.362 43.7625 195.575 44.6958C193.815 45.6292 191.842 46.0958 189.655 46.0958ZM189.655 40.1758C190.962 40.1758 192.068 39.6958 192.975 38.7358C193.908 37.7758 194.375 36.4025 194.375 34.6158C194.375 32.8292 193.922 31.4558 193.015 30.4958C192.135 29.5358 191.042 29.0558 189.735 29.0558C188.402 29.0558 187.295 29.5358 186.415 30.4958C185.535 31.4292 185.095 32.8025 185.095 34.6158C185.095 36.4025 185.522 37.7758 186.375 38.7358C187.255 39.6958 188.348 40.1758 189.655 40.1758Z" fill="white"/>
<path d="M230.56 17.8158V20.1358H222.8V45.7758H220V20.1358H212.2V17.8158H230.56ZM236.381 19.8158C235.821 19.8158 235.341 19.6158 234.941 19.2158C234.541 18.8158 234.341 18.3225 234.341 17.7358C234.341 17.1492 234.541 16.6692 234.941 16.2958C235.341 15.8958 235.821 15.6958 236.381 15.6958C236.941 15.6958 237.421 15.8958 237.821 16.2958C238.221 16.6692 238.421 17.1492 238.421 17.7358C238.421 18.3225 238.221 18.8158 237.821 19.2158C237.421 19.6158 236.941 19.8158 236.381 19.8158ZM237.781 23.9358V45.7758H234.981V23.9358H237.781ZM242.841 34.8558C242.841 32.5892 243.295 30.6158 244.201 28.9358C245.108 27.2292 246.361 25.9225 247.961 25.0158C249.561 24.0825 251.388 23.6158 253.441 23.6158C256.135 23.6158 258.348 24.2825 260.081 25.6158C261.841 26.9492 262.975 28.7625 263.481 31.0558H260.481C260.108 29.4825 259.295 28.2558 258.041 27.3758C256.815 26.4692 255.281 26.0158 253.441 26.0158C251.975 26.0158 250.655 26.3492 249.481 27.0158C248.308 27.6825 247.375 28.6825 246.681 30.0158C246.015 31.3225 245.681 32.9358 245.681 34.8558C245.681 36.7758 246.015 38.4025 246.681 39.7358C247.375 41.0692 248.308 42.0692 249.481 42.7358C250.655 43.4025 251.975 43.7358 253.441 43.7358C255.281 43.7358 256.815 43.2958 258.041 42.4158C259.295 41.5092 260.108 40.2558 260.481 38.6558H263.481C262.975 40.8958 261.841 42.6958 260.081 44.0558C258.321 45.4158 256.108 46.0958 253.441 46.0958C251.388 46.0958 249.561 45.6425 247.961 44.7358C246.361 43.8025 245.108 42.4958 244.201 40.8158C243.295 39.1092 242.841 37.1225 242.841 34.8558ZM280.453 45.7758L271.453 35.9758V45.7758H268.653V16.1758H271.453V33.6958L280.253 23.9358H284.173L273.813 34.8158L284.253 45.7758H280.453ZM307.631 33.7358C307.631 34.6958 307.605 35.4292 307.551 35.9358H289.431C289.511 37.5892 289.911 39.0025 290.631 40.1758C291.351 41.3492 292.298 42.2425 293.471 42.8558C294.645 43.4425 295.925 43.7358 297.311 43.7358C299.125 43.7358 300.645 43.2958 301.871 42.4158C303.125 41.5358 303.951 40.3492 304.351 38.8558H307.311C306.778 40.9892 305.631 42.7358 303.871 44.0958C302.138 45.4292 299.951 46.0958 297.311 46.0958C295.258 46.0958 293.418 45.6425 291.791 44.7358C290.165 43.8025 288.885 42.4958 287.951 40.8158C287.045 39.1092 286.591 37.1225 286.591 34.8558C286.591 32.5892 287.045 30.6025 287.951 28.8958C288.858 27.1892 290.125 25.8825 291.751 24.9758C293.378 24.0692 295.231 23.6158 297.311 23.6158C299.391 23.6158 301.205 24.0692 302.751 24.9758C304.325 25.8825 305.525 27.1092 306.351 28.6558C307.205 30.1758 307.631 31.8692 307.631 33.7358ZM304.791 33.6558C304.818 32.0292 304.485 30.6425 303.791 29.4958C303.125 28.3492 302.205 27.4825 301.031 26.8958C299.858 26.3092 298.578 26.0158 297.191 26.0158C295.111 26.0158 293.338 26.6825 291.871 28.0158C290.405 29.3492 289.591 31.2292 289.431 33.6558H304.791ZM316.394 26.2958V39.8558C316.394 41.1892 316.648 42.1092 317.154 42.6158C317.661 43.1225 318.554 43.3758 319.834 43.3758H322.394V45.7758H319.394C317.421 45.7758 315.954 45.3225 314.994 44.4158C314.034 43.4825 313.554 41.9625 313.554 39.8558V26.2958H310.514V23.9358H313.554V18.4558H316.394V23.9358H322.394V26.2958H316.394ZM334.532 46.0958C332.025 46.0958 329.972 45.5225 328.372 44.3758C326.799 43.2025 325.919 41.6158 325.732 39.6158H328.612C328.745 40.8425 329.319 41.8425 330.332 42.6158C331.372 43.3625 332.759 43.7358 334.492 43.7358C336.012 43.7358 337.199 43.3758 338.052 42.6558C338.932 41.9358 339.372 41.0425 339.372 39.9758C339.372 39.2292 339.132 38.6158 338.652 38.1358C338.172 37.6558 337.559 37.2825 336.812 37.0158C336.092 36.7225 335.105 36.4158 333.852 36.0958C332.225 35.6692 330.905 35.2425 329.892 34.8158C328.879 34.3892 328.012 33.7625 327.292 32.9358C326.599 32.0825 326.252 30.9492 326.252 29.5358C326.252 28.4692 326.572 27.4825 327.212 26.5758C327.852 25.6692 328.759 24.9492 329.932 24.4158C331.105 23.8825 332.439 23.6158 333.932 23.6158C336.279 23.6158 338.172 24.2158 339.612 25.4158C341.052 26.5892 341.825 28.2158 341.932 30.2958H339.132C339.052 29.0158 338.545 27.9892 337.612 27.2158C336.705 26.4158 335.452 26.0158 333.852 26.0158C332.439 26.0158 331.292 26.3492 330.412 27.0158C329.532 27.6825 329.092 28.5092 329.092 29.4958C329.092 30.3492 329.345 31.0558 329.852 31.6158C330.385 32.1492 331.039 32.5758 331.812 32.8958C332.585 33.1892 333.625 33.5225 334.932 33.8958C336.505 34.3225 337.759 34.7358 338.692 35.1358C339.625 35.5358 340.425 36.1225 341.092 36.8958C341.759 37.6692 342.105 38.6958 342.132 39.9758C342.132 41.1492 341.812 42.2025 341.172 43.1358C340.532 44.0425 339.639 44.7625 338.492 45.2958C337.345 45.8292 336.025 46.0958 334.532 46.0958Z" fill="white"/>
<defs>
<clipPath id="clip0_49_132">
<rect width="67.9996" height="63.5517" fill="white"/>
</clipPath>
</defs>
</svg>
